<svg xmlns="http://www.w3.org/2000/svg" width="45" height="32" viewBox="0 0 45 32"><g><g><path fill="#f16d7f" d="M30.288 27.243H14.811a5.562 5.562 0 0 1-10.987 0H1.887A1.869 1.869 0 0 1 .03 25.367V1.877A1.869 1.869 0 0 1 1.887 0h25.551a1.868 1.868 0 0 1 1.856 1.877v1.905h7.121a.9.9 0 0 1 .238.031c2.3.2 3.457 1.4 4.677 3.462l3.559 6.094c.085.145.13.31.13.477v12.458a.934.934 0 0 1-.929.938h-2.814a5.562 5.562 0 0 1-10.987 0zm1.778-.939a3.715 3.715 0 1 0 3.716-3.755 3.74 3.74 0 0 0-3.716 3.755zm-26.464 0a3.715 3.715 0 1 0 3.716-3.755 3.74 3.74 0 0 0-3.717 3.755zm35.672-.938h1.886v-5.618h-2.736a.932.932 0 0 1-.929-.938v-1.847c0-.72.275-1.414.77-1.938h-6.379a.927.927 0 0 1-.229-.03 2.825 2.825 0 0 1-2.574-2.823v-4.7a.936.936 0 0 1 .929-.939h6.483a3.354 3.354 0 0 0-2.578-.88h-6.623v19.709h.994a5.561 5.561 0 0 1 10.987 0zm-13.837 0V1.876H1.887v23.49h1.937a5.562 5.562 0 0 1 10.987 0zm13.915-8.4v.909h1.808v-1.847h-.879a.934.934 0 0 0-.928.935zm-8.413-4.792a.954.954 0 0 0 .947.958c.064 0 .128.006.19.02h8.525l-2.766-4.736h-6.9zm.093 14.132a2.766 2.766 0 0 1 2.749-2.777.938.938 0 0 1 0 1.876.9.9 0 1 0 .892.9.928.928 0 0 1 1.857 0 2.75 2.75 0 1 1-5.5 0zm-26.464 0a2.766 2.766 0 0 1 2.749-2.777.938.938 0 0 1 0 1.876.9.9 0 1 0 .892.9.928.928 0 0 1 1.857 0 2.75 2.75 0 1 1-5.5 0zM4.71 5.66a.938.938 0 1 1 0-1.876h19.9a.938.938 0 1 1 0 1.876z"/></g></g></svg>