<svg xmlns="http://www.w3.org/2000/svg" width="47" height="35" viewBox="0 0 47 35"><g><g><path fill="#f16d7f" d="M42.398 8.539a4.516 4.516 0 0 1 1.093 8.926v12.29a.903.903 0 0 1-.05.242c.033.126.05.257.05.388 0 4.413-17.919 4.542-19.962 4.542-2.043 0-19.962-.13-19.962-4.542 0-.131.017-.262.05-.388a1.073 1.073 0 0 1-.05-.241V17.465a4.647 4.647 0 1 1 5.745-4.393 4.455 4.455 0 0 1-1.558 3.365l5.858 2.055 8.352-9.7A4.543 4.543 0 0 1 18.92 4.55a4.646 4.646 0 0 1 9.29 0 4.537 4.537 0 0 1-3.1 4.256l8.34 9.683 5.86-2.055a4.454 4.454 0 0 1-1.56-3.365 4.6 4.6 0 0 1 4.645-4.533zm-20.51-2.33c.447.436 1.049.677 1.673.67a2.386 2.386 0 1 0-2.386-2.327c.01.624.265 1.22.713 1.657zM5.834 18.104v9.937c4.881-2.121 16.11-2.2 17.7-2.2 1.591 0 12.815.078 17.7 2.2v-9.937l-7.758 2.725a1.155 1.155 0 0 1-1.245-.331l-8.7-10.1-8.7 10.1a1.155 1.155 0 0 1-1.246.33zm34.248 12.75c.35-.115.685-.275.995-.473-.72-.521-3.065-1.232-6.965-1.732a93.168 93.168 0 0 0-21.175 0c-3.905.5-6.244 1.21-6.966 1.732a4.63 4.63 0 0 0 1 .474c2.308.85 7.857 1.862 16.557 1.862 8.708 0 14.252-1.013 16.554-1.862zM2.992 14.728c.448.437 1.05.678 1.675.672a2.385 2.385 0 1 0-2.386-2.33c.009.625.264 1.221.712 1.658zm39.402.67a2.362 2.362 0 0 0 2.386-2.328 2.329 2.329 0 1 0-2.386 2.33z"/></g></g></svg>